<?xml version="1.0" standalone="no"?>
<!DOCTYPE svg PUBLIC "-//W3C//DTD SVG 20010904//EN"
 "http://www.w3.org/TR/2001/REC-SVG-20010904/DTD/svg10.dtd">
<svg version="1.0" xmlns="http://www.w3.org/2000/svg"
 width="1024.000000pt" height="1024.000000pt" viewBox="0 0 1024.000000 1024.000000"
 preserveAspectRatio="xMidYMid meet">

<g transform="translate(0.000000,1024.000000) scale(0.100000,-0.100000)"
fill="#000000" stroke="none">
<path d="M2705 9603 c-528 -17 -855 -106 -1176 -321 -384 -257 -645 -643 -733
-1082 -53 -264 -50 -93 -54 -2895 -2 -1849 0 -2637 8 -2754 30 -439 119 -729
309 -1012 205 -306 506 -544 851 -672 175 -65 396 -101 710 -117 260 -13 4676
-13 4955 0 467 22 677 67 948 201 332 165 617 452 778 785 97 200 154 421 187
719 16 148 17 353 17 2760 0 2434 -1 2610 -18 2755 -29 254 -69 408 -154 590
-119 257 -311 493 -533 656 -116 86 -139 100 -264 165 -281 145 -522 197
-1012 219 -188 8 -4572 11 -4819 3z m2633 -464 c419 -46 782 -227 1014 -505
210 -252 308 -525 308 -854 0 -223 -45 -420 -131 -576 -49 -89 -56 -136 -35
-245 21 -111 20 -137 -4 -202 -26 -70 -75 -126 -141 -161 -47 -26 -66 -30
-186 -37 -118 -7 -139 -11 -177 -33 -25 -14 -55 -43 -68 -63 -21 -35 -23 -51
-28 -225 -5 -169 -7 -189 -26 -215 -22 -29 -110 -70 -172 -80 -53 -9 -62 11
-62 134 0 90 -3 106 -20 123 -24 24 -57 26 -87 5 -20 -14 -22 -25 -25 -146 -4
-171 -2 -169 -167 -169 -78 0 -121 4 -129 12 -8 8 -12 51 -12 126 0 108 -8
147 -34 164 -21 14 -66 8 -86 -12 -18 -18 -20 -33 -20 -136 0 -63 -5 -124 -10
-135 -10 -17 -22 -19 -131 -19 -114 0 -121 1 -144 25 -24 23 -25 30 -25 145 0
107 -2 122 -20 140 -26 26 -72 26 -96 -1 -15 -17 -20 -39 -22 -118 -4 -133 -6
-141 -42 -141 -43 0 -138 38 -174 70 l-31 28 -5 189 c-6 208 -15 244 -68 281
-50 36 -82 43 -218 51 -150 9 -188 24 -258 102 -62 68 -79 118 -72 208 20 246
22 229 -19 306 -104 197 -139 347 -139 595 -1 192 12 274 64 432 172 516 656
872 1271 937 122 12 315 13 427 0z m-2451 -2584 c58 -29 122 -93 153 -155 29
-56 50 -159 50 -244 0 -87 24 -141 86 -191 52 -43 613 -410 826 -541 89 -55
75 -18 134 -341 20 -109 42 -217 49 -240 7 -24 11 -43 7 -43 -9 0 -268 146
-935 527 -197 112 -377 213 -400 223 -65 30 -141 26 -234 -12 -154 -62 -301
-46 -399 44 -24 22 -56 66 -71 97 -24 48 -28 68 -28 141 0 102 19 146 91 209
52 46 121 71 195 71 58 0 84 21 74 59 -4 14 -10 66 -12 115 -4 83 -3 92 27
152 53 108 128 153 256 154 66 0 89 -4 131 -25z m4731 -1 c64 -32 125 -100
141 -157 13 -43 10 -170 -4 -235 -11 -48 6 -62 74 -62 77 0 141 -23 195 -71
65 -57 88 -111 89 -209 0 -72 -3 -86 -34 -147 -84 -164 -268 -217 -472 -134
-54 21 -94 31 -132 31 -70 0 -78 -4 -820 -428 -319 -182 -588 -334 -597 -337
-16 -6 -16 -4 -3 37 8 23 35 151 60 283 25 132 51 245 58 251 6 7 107 72 222
145 257 162 615 400 673 446 66 54 84 98 93 235 6 100 12 127 37 181 39 85 81
130 154 167 52 26 72 30 138 30 62 0 86 -5 128 -26z m-2960 -960 c20 -14 22
-23 22 -127 0 -152 4 -157 114 -157 113 0 115 2 118 155 4 151 -6 145 213 145
213 0 205 6 205 -146 0 -146 6 -154 115 -154 109 0 115 8 115 153 0 61 5 119
10 127 13 21 366 28 393 8 17 -13 16 -27 -38 -318 -32 -168 -64 -317 -71 -332
-8 -15 -26 -36 -41 -45 -25 -17 -74 -18 -688 -18 -646 0 -661 0 -695 20 -46
27 -55 59 -117 399 -48 261 -49 270 -31 288 16 16 37 18 186 18 135 0 172 -3
190 -16z m960 -1004 c3 -131 28 -395 48 -510 20 -123 70 -272 137 -413 29 -62
52 -118 49 -125 -5 -15 -1457 -18 -1467 -3 -3 5 19 63 49 128 29 65 65 151 80
191 51 143 90 402 102 667 3 77 7 146 10 153 3 10 107 12 496 10 l493 -3 3
-95z m-1218 -307 c-11 -65 -41 -202 -67 -306 l-46 -187 -171 -107 c-94 -59
-254 -161 -356 -226 -389 -250 -390 -251 -400 -442 -6 -107 -10 -129 -37 -186
-71 -152 -225 -229 -374 -186 -122 36 -204 147 -204 277 0 36 6 85 14 108 22
64 10 76 -80 83 -161 13 -258 111 -267 269 -5 94 21 170 78 229 61 63 111 84
210 89 80 4 91 2 180 -33 107 -43 178 -49 242 -21 43 19 444 254 943 554 192
116 351 209 353 207 2 -1 -6 -56 -18 -122z m1855 -134 c480 -289 783 -467 843
-498 77 -39 124 -38 232 5 78 31 110 39 182 42 76 3 94 1 141 -21 60 -27 119
-83 150 -142 33 -61 31 -202 -3 -269 -48 -95 -151 -156 -261 -156 -63 0 -77
-17 -61 -76 7 -24 12 -77 12 -117 0 -295 -375 -393 -544 -143 -46 68 -66 142
-66 246 0 111 -19 168 -72 216 -53 48 -561 378 -790 515 -52 30 -59 39 -72 84
-35 120 -77 299 -96 410 -11 66 -23 130 -26 143 -3 18 -1 21 9 15 7 -4 197
-119 422 -254z m-234 -879 c7 -107 35 -151 137 -216 73 -47 112 -111 112 -182
0 -46 -4 -58 -29 -83 l-29 -29 -1092 0 -1092 0 -29 29 c-25 25 -29 37 -29 83
0 73 38 132 119 187 33 23 71 56 85 74 31 41 49 110 41 154 -12 67 -75 63 909
61 l891 -3 6 -75z m-215 -1083 c87 -44 144 -137 144 -234 l0 -34 -81 3 -82 3
-14 47 c-17 60 -52 88 -109 88 -56 0 -92 -17 -110 -53 -34 -64 -42 -322 -14
-428 14 -52 50 -81 107 -86 70 -6 103 18 126 90 l18 57 81 0 81 0 -6 -60 c-9
-100 -56 -174 -137 -215 -61 -30 -126 -38 -201 -25 -83 15 -128 39 -176 94
-55 62 -75 137 -81 301 -10 282 45 411 200 467 76 27 185 20 254 -15z m1883
17 c97 -29 167 -120 159 -210 l-3 -39 -68 -3 c-72 -3 -97 7 -97 39 0 10 -11
30 -23 45 -20 23 -32 27 -72 27 -40 0 -52 -4 -72 -27 -31 -36 -31 -89 0 -120
12 -12 58 -37 102 -55 111 -46 159 -76 200 -124 92 -107 64 -285 -55 -359 -85
-52 -236 -55 -331 -7 -55 27 -106 93 -118 151 -20 90 -21 88 68 88 84 0 94 -5
106 -52 14 -55 76 -84 141 -66 41 11 64 42 64 84 0 51 -35 82 -155 139 -132
62 -187 107 -209 172 -19 55 -20 84 -5 151 29 139 201 216 368 166z m642 0
c80 -24 143 -90 159 -167 16 -80 8 -89 -84 -85 -70 3 -71 3 -81 35 -22 68 -77
95 -140 69 -90 -38 -66 -140 42 -181 145 -54 238 -122 271 -195 8 -20 15 -61
14 -96 -1 -150 -106 -242 -276 -245 -173 -3 -286 90 -286 235 l0 37 82 -3 81
-3 14 -40 c19 -56 45 -75 105 -75 64 0 98 30 98 89 0 54 -36 88 -136 130 -107
44 -180 95 -211 148 -22 39 -25 52 -22 126 6 124 46 178 163 219 64 22 137 23
207 2z m-5723 -10 l22 -15 0 -403 c0 -299 -3 -405 -12 -414 -18 -18 -133 -15
-152 4 -14 13 -16 64 -16 407 0 454 -3 437 83 437 31 0 62 -6 75 -16z m3601
-1 c19 -17 21 -29 23 -173 l3 -155 108 -3 107 -3 0 156 c0 142 2 157 20 175
25 25 105 27 138 4 l22 -15 0 -399 c0 -458 6 -430 -90 -430 -89 0 -90 2 -90
191 l0 159 -110 0 -110 0 0 -163 c0 -113 -4 -167 -12 -175 -7 -7 -39 -12 -74
-12 -99 0 -94 -23 -94 430 0 447 -3 430 84 430 37 0 61 -6 75 -17z m-4040 -9
c70 -20 132 -81 152 -149 17 -60 17 -186 0 -237 -38 -113 -124 -168 -278 -176
l-93 -5 0 -118 c0 -143 -4 -149 -94 -149 -35 0 -67 5 -74 12 -17 17 -17 809 0
826 19 19 320 16 387 -4z m1025 -4 c101 -38 148 -116 149 -246 1 -69 -3 -89
-27 -137 -22 -47 -59 -86 -104 -113 -2 -1 31 -70 73 -154 60 -121 74 -155 64
-166 -15 -18 -138 -19 -162 -1 -9 6 -44 74 -78 150 l-61 137 -49 0 -49 0 0
-138 c0 -94 -4 -142 -12 -150 -7 -7 -40 -12 -80 -12 -56 0 -69 3 -78 19 -15
30 -14 803 2 819 8 8 64 12 185 12 149 0 180 -3 227 -20z m703 12 c11 -7 110
-346 212 -725 31 -116 30 -117 -71 -117 -81 0 -91 8 -108 89 -7 33 -18 62 -24
64 -6 2 -59 5 -118 6 -121 2 -116 6 -138 -87 -15 -63 -28 -72 -114 -72 -84 0
-90 10 -65 99 11 36 60 215 110 396 50 182 96 336 101 343 12 14 194 17 215 4z
m779 -4 c11 -18 4 -132 -9 -140 -7 -4 -49 -8 -94 -8 l-83 0 -2 -222 c-1 -123
-1 -268 0 -323 2 -132 -6 -145 -91 -145 -36 0 -68 5 -75 12 -9 9 -12 99 -12
345 l0 333 -88 0 c-55 0 -92 4 -100 12 -16 16 -16 120 0 136 17 17 544 17 554
0z m572 -56 c2 -38 -2 -69 -9 -78 -9 -11 -41 -14 -139 -14 l-127 0 -7 -31 c-8
-40 -8 -113 0 -133 5 -13 25 -16 118 -16 74 0 116 -4 124 -12 7 -7 12 -35 12
-63 0 -76 -12 -84 -145 -87 l-110 -3 -1 -70 c0 -124 -12 -114 145 -117 l136
-3 3 -63 c2 -38 -2 -69 -9 -78 -15 -19 -418 -21 -437 -2 -17 17 -17 809 0 826
9 9 69 12 228 10 l215 -3 3 -63z m1970 0 c2 -38 -2 -69 -9 -78 -9 -11 -41 -14
-140 -14 l-128 0 -7 -45 c-3 -25 -3 -65 0 -90 l7 -44 117 -3 117 -3 3 -63 c2
-38 -2 -69 -9 -78 -9 -10 -39 -14 -120 -14 l-109 0 -1 -52 c-2 -55 -2 -90 0
-120 1 -16 14 -18 135 -18 113 0 135 -2 140 -16 11 -28 6 -120 -6 -132 -17
-17 -419 -17 -436 0 -17 17 -17 809 0 826 9 9 69 12 228 10 l215 -3 3 -63z"/>
<path d="M4410 7770 c-131 -17 -217 -57 -300 -136 -102 -97 -142 -212 -121
-351 15 -100 48 -170 111 -237 76 -80 147 -109 281 -114 160 -6 256 27 355
120 108 102 154 209 154 356 -1 149 -66 264 -184 322 -95 46 -171 57 -296 40z"/>
<path d="M5631 7769 c-158 -28 -270 -165 -279 -345 -11 -214 123 -408 327
-474 60 -19 86 -22 178 -18 91 3 117 8 165 30 157 73 259 275 227 451 -29 163
-160 295 -340 341 -75 19 -212 27 -278 15z"/>
<path d="M5062 7118 c-11 -13 -60 -106 -108 -208 -71 -148 -89 -196 -92 -242
-4 -50 -2 -59 21 -82 21 -20 36 -26 72 -26 59 0 97 20 123 65 28 47 55 46 81
-3 31 -58 134 -81 183 -42 56 43 43 106 -75 351 -51 107 -94 183 -108 193 -33
22 -72 20 -97 -6z"/>
<path d="M1958 2044 c-5 -4 -8 -65 -8 -135 0 -120 1 -128 21 -134 23 -8 116 3
141 16 29 15 51 70 51 124 0 90 -33 122 -134 131 -35 4 -67 3 -71 -2z"/>
<path d="M2958 2044 c-5 -4 -8 -61 -8 -127 l0 -120 81 5 c100 6 129 28 136
105 9 95 -27 133 -135 140 -37 3 -70 2 -74 -3z"/>
<path d="M3787 1973 c-6 -9 -77 -303 -77 -317 0 -3 39 -6 86 -6 76 0 85 2 81
18 -3 9 -20 78 -37 152 -34 142 -43 169 -53 153z"/>
</g>
</svg>
